<?xml version="1.0" standalone="no"?>
<!DOCTYPE svg PUBLIC "-//W3C//DTD SVG 20010904//EN"
 "http://www.w3.org/TR/2001/REC-SVG-20010904/DTD/svg10.dtd">
<svg version="1.0" xmlns="http://www.w3.org/2000/svg"
 width="1139.000000pt" height="1280.000000pt" viewBox="0 0 1139.000000 1280.000000"
 preserveAspectRatio="xMidYMid meet">
<metadata>
Created by potrace 1.15, written by Peter Selinger 2001-2017
</metadata>
<g transform="translate(0.000000,1280.000000) scale(0.100000,-0.100000)"
fill="#e91e63" stroke="none">
<path d="M1689 12788 c-59 -16 -1570 -912 -1598 -947 -13 -17 -32 -62 -43 -99
-23 -82 -34 -366 -44 -1182 -7 -634 0 -779 41 -841 40 -62 128 -123 300 -211
142 -72 748 -423 1051 -609 224 -136 328 -176 438 -166 76 7 197 66 426 208
190 117 936 559 1087 643 120 66 197 125 217 165 29 55 46 967 26 1371 -24
483 -36 599 -72 683 -24 56 22 26 -643 417 -264 156 -562 332 -662 392 -101
60 -208 120 -239 135 -109 50 -202 63 -285 41z"/>
<path d="M5595 12791 c-45 -11 -46 -12 -830 -473 -401 -237 -745 -445 -763
-463 -56 -54 -72 -120 -84 -360 -13 -245 -17 -1648 -5 -1716 15 -87 110 -163
368 -294 81 -41 343 -190 581 -331 733 -435 701 -419 843 -419 77 0 84 2 185
54 58 30 191 106 295 170 206 127 935 557 1079 637 113 63 192 133 205 182 15
54 27 828 19 1172 -7 308 -30 676 -49 770 -15 71 -42 123 -76 148 -27 18
-1312 778 -1438 850 -120 68 -240 94 -330 73z"/>
<path d="M9479 12788 c-21 -5 -383 -213 -805 -463 -844 -497 -808 -472 -839
-590 -21 -76 -32 -404 -41 -1170 -7 -652 -1 -783 41 -847 40 -61 128 -122 300
-210 139 -71 634 -357 1072 -621 299 -180 387 -195 581 -96 57 29 176 97 265
152 189 117 799 478 1037 614 178 102 242 149 265 192 21 41 39 688 32 1101
-6 322 -28 701 -47 835 -12 81 -49 164 -82 184 -13 8 -259 154 -548 324 -289
170 -607 359 -707 419 -101 60 -208 120 -239 135 -110 50 -202 63 -285 41z"/>
<path d="M1660 8411 c-66 -27 -1520 -888 -1552 -918 -39 -37 -66 -117 -78
-226 -11 -104 -30 -998 -30 -1392 0 -285 13 -478 34 -510 46 -70 149 -142 344
-239 114 -57 903 -517 1067 -621 31 -20 100 -58 153 -83 90 -44 101 -47 192
-50 l96 -4 114 59 c63 33 203 113 310 179 206 127 872 520 1049 620 58 32 129
81 159 109 l55 51 10 125 c5 68 10 383 11 699 1 469 -2 619 -17 815 -26 344
-41 422 -93 466 -37 32 -1488 883 -1548 908 -82 34 -210 40 -276 12z"/>
<path d="M5545 8407 c-53 -25 -1479 -865 -1529 -900 -36 -26 -72 -104 -85
-187 -26 -164 -44 -1727 -22 -1878 17 -112 84 -172 353 -310 147 -76 622 -352
1055 -613 205 -123 252 -142 368 -147 l90 -3 111 54 c61 30 188 103 283 162
194 119 954 569 1073 634 42 23 104 62 138 87 100 74 97 57 107 559 9 494 2
914 -21 1230 -17 228 -33 316 -66 369 -14 24 -173 122 -671 416 -993 586 -908
542 -1044 547 -79 4 -96 1 -140 -20z"/>
<path d="M9450 8411 c-59 -24 -1518 -886 -1548 -914 -68 -63 -81 -134 -93
-492 -13 -378 -17 -1468 -6 -1557 14 -115 83 -177 342 -310 143 -73 567 -318
1040 -602 237 -142 277 -159 395 -164 l95 -4 115 59 c63 33 194 108 290 167
180 112 856 511 1059 626 121 69 193 125 216 169 28 55 45 967 25 1361 -25
510 -41 644 -85 711 -19 29 -151 111 -766 474 -408 241 -770 450 -803 464 -82
34 -210 40 -276 12z"/>
<path d="M1688 4058 c-60 -16 -1569 -911 -1597 -947 -13 -17 -32 -62 -43 -99
-23 -82 -34 -365 -44 -1182 -8 -630 0 -779 41 -842 40 -61 129 -122 300 -210
148 -75 606 -340 1012 -585 278 -168 380 -206 497 -189 63 10 219 91 441 228
190 118 751 450 1005 595 177 102 242 149 265 192 28 55 45 967 25 1376 -23
480 -36 596 -74 680 l-23 51 -709 419 c-390 230 -736 433 -769 451 -124 66
-233 87 -327 62z"/>
<path d="M5579 4056 c-49 -17 -52 -19 -849 -488 -440 -260 -708 -423 -731
-447 -80 -82 -86 -167 -95 -1231 -7 -808 -5 -858 44 -914 54 -64 120 -108 302
-202 158 -83 792 -451 1100 -639 173 -106 278 -142 381 -131 76 7 200 69 454
225 218 134 857 513 1049 621 163 92 232 155 240 220 11 83 21 862 15 1150 -7
284 -32 680 -49 771 -11 56 -40 117 -66 140 -30 25 -1495 884 -1539 902 -96
39 -189 47 -256 23z"/>
<path d="M9478 4058 c-20 -5 -383 -214 -805 -463 -843 -497 -807 -471 -838
-590 -21 -76 -32 -404 -41 -1170 -7 -652 -1 -783 41 -847 40 -61 128 -122 300
-210 138 -70 842 -478 1081 -626 187 -116 303 -158 408 -149 75 7 163 50 408
199 255 155 963 573 1089 643 126 70 202 126 228 169 43 69 53 1124 16 1651
-19 271 -29 346 -59 410 -22 48 -29 53 -202 156 -787 466 -1248 738 -1299 765
-124 66 -233 87 -327 62z"/>
</g>
</svg>
